<svg width="40" height="41" viewBox="0 0 40 41" fill="none" xmlns="http://www.w3.org/2000/svg">
<path fill-rule="evenodd" clip-rule="evenodd" d="M40 20.5C40 31.5457 31.0457 40.5 20 40.5C8.9543 40.5 0 31.5457 0 20.5C0 9.4543 8.9543 0.5 20 0.5C31.0457 0.5 40 9.4543 40 20.5ZM28.0607 14.4393C28.6464 15.0251 28.6464 15.9749 28.0607 16.5607L18.0607 26.5607C17.4749 27.1464 16.5251 27.1464 15.9393 26.5607L11.9393 22.5607C11.3536 21.9749 11.3536 21.0251 11.9393 20.4393C12.5251 19.8536 13.4749 19.8536 14.0607 20.4393L17 23.3787L21.4697 18.909L25.9393 14.4393C26.5251 13.8536 27.4749 13.8536 28.0607 14.4393Z" fill="#A2A2A2"/>
</svg>
