<svg width="18" height="18" viewBox="0 0 18 18" fill="none" xmlns="http://www.w3.org/2000/svg">
<path d="M8.99935 0.0416567H8.95153C7.02787 0.0416459 5.52034 0.0416374 4.3441 0.199779C3.14016 0.361645 2.19014 0.699429 1.44446 1.4451C0.698788 2.19078 0.361004 3.1408 0.199138 4.34474C0.0409966 5.52098 0.0410051 7.02851 0.0410158 8.95217V9.0478C0.0410051 10.9715 0.0409966 12.479 0.199138 13.6552C0.361004 14.8592 0.698788 15.8092 1.44446 16.5549C2.19014 17.3006 3.14016 17.6383 4.3441 17.8002C5.52034 17.9583 7.02788 17.9583 8.95154 17.9583H9.04716C10.9708 17.9583 12.4784 17.9583 13.6546 17.8002C14.8585 17.6383 15.8086 17.3006 16.5542 16.5549C17.2999 15.8092 17.6377 14.8592 17.7996 13.6552C17.9577 12.479 17.9577 10.9715 17.9577 9.0478V8.99999C17.9577 8.65481 17.6779 8.37499 17.3327 8.37499C16.9875 8.37499 16.7077 8.65481 16.7077 8.99999C16.7077 10.9818 16.7064 12.4054 16.5607 13.4887C16.4175 14.554 16.1451 15.1963 15.6704 15.671C15.1956 16.1457 14.5534 16.4181 13.488 16.5613C12.4047 16.707 10.9812 16.7083 8.99935 16.7083C7.0175 16.7083 5.59398 16.707 4.51066 16.5613C3.44533 16.4181 2.80306 16.1457 2.32835 15.671C1.85363 15.1963 1.58122 14.554 1.43799 13.4887C1.29234 12.4054 1.29102 10.9818 1.29102 8.99999C1.29102 7.01814 1.29234 5.59462 1.43799 4.5113C1.58122 3.44597 1.85363 2.8037 2.32835 2.32899C2.80306 1.85427 3.44533 1.58186 4.51066 1.43863C5.59398 1.29298 7.0175 1.29166 8.99935 1.29166C9.34453 1.29166 9.62435 1.01183 9.62435 0.666657C9.62435 0.321479 9.34453 0.0416567 8.99935 0.0416567Z" fill="black"/>
<path d="M9.39074 7.72471C9.14666 7.96879 9.14666 8.36452 9.39074 8.6086C9.63482 8.85268 10.0305 8.85268 10.2746 8.6086L16.7077 2.17554V5.11978C16.7077 5.46496 16.9875 5.74478 17.3327 5.74478C17.6779 5.74478 17.9577 5.46496 17.9577 5.11978V0.666657C17.9577 0.321479 17.6779 0.0416567 17.3327 0.0416567H12.8796C12.5344 0.0416567 12.2546 0.321479 12.2546 0.666657C12.2546 1.01183 12.5344 1.29166 12.8796 1.29166H15.8238L9.39074 7.72471Z" fill="black"/>
</svg>
